# File exported by Houdini 15.0.393 (www.sidefx.com)
# 252 points
# 1500 vertices
# 500 primitives
# Bounds: [-3.89571428, 0.00212645531, -0.699999988] to [-2.50428581, 1.39787352, 0.699999988]
g
v -5.850381 0.000000 -1.125068
v -6.704244 0.000000 -1.125068
v -6.704244 0.853863 -1.125068
v -5.850381 0.853863 -1.125068
v -5.850381 0.000000 -0.271206
v -5.850381 0.853863 -0.271205
v -6.704244 0.000000 -0.271206
v -6.704244 0.853863 -0.271205
vt 1.000000 1.000000
vt 0.000000 1.000000
vt 0.352416 0.647584
vt 0.647584 0.647584
vt 1.000000 0.000000
vt 0.647584 0.352416
vt 0.000000 0.000000
vt 0.352416 0.352416
vn 0.000000 0.000000 -1.000000
vn 1.000000 0.000000 0.000000
vn 0.000000 -0.000001 1.000000
vn -1.000000 -0.000001 0.000000
vn 0.000000 -1.000000 -0.000000
vn 0.000000 1.000000 0.000000
g
f 1/1/1 2/2/1 3/3/1 4/4/1
f 5/5/2 1/1/2 4/4/2 6/6/2
f 7/7/3 5/5/3 6/6/3 8/8/3
f 2/2/4 7/7/4 8/8/4 3/3/4
f 2/2/5 1/1/5 5/5/5 7/7/5
f 4/4/6 3/3/6 8/8/6 6/6/6
